<?xml version="1.0" encoding="UTF-8" standalone="no"?>
<svg width="13px" height="24px" viewBox="0 0 13 24" version="1.1" xmlns="http://www.w3.org/2000/svg" xmlns:xlink="http://www.w3.org/1999/xlink">
    <!-- Generator: Sketch 3.8.1 (29687) - http://www.bohemiancoding.com/sketch -->
    <title>Fill 1</title>
    <desc>Created with Sketch.</desc>
    <defs></defs>
    <g id="Welcome" stroke="none" stroke-width="1" fill="none" fill-rule="evenodd">
        <g id="About-me--Copy-2" transform="translate(-833.000000, -301.000000)" fill="#FFFFFF">
            <g id="Group-4" transform="translate(797.000000, 297.000000)">
                <path d="M43.1162292,27.7466989 C42.7758594,28.0844337 42.2237311,28.0844337 41.8833612,27.7466989 L36.1904597,22.0986838 C36.0684017,21.9775707 36,21.8133771 36,21.6422744 L36,21.6422744 C36,21.0675969 36.6999905,20.7798517 37.1095813,21.1862715 L41.4238004,25.4666842 C41.5810832,25.6227493 41.8501843,25.5122032 41.8501843,25.2915173 L41.8501843,18.7107689 L41.8501843,4.64458171 C41.8501843,4.28855801 42.1409937,4 42.4997952,4 L42.4997952,4 C42.8585967,4 43.1498157,4.28855801 43.1498157,4.64458171 L43.1498157,18.7107689 L43.1498157,25.2915173 C43.1498157,25.5122032 43.4185072,25.6227493 43.5761996,25.4666842 L47.8904187,21.1862715 C48.3000095,20.7798517 49,21.0675969 49,21.6422744 L49,21.6422744 C49,21.8133771 48.9315983,21.9775707 48.8095403,22.0986838 L43.1162292,27.7466989 Z" id="Fill-1"></path>
            </g>
        </g>
    </g>
</svg>