<svg xmlns="http://www.w3.org/2000/svg" width="1440" height="800" viewBox="0 0 1440 800">
  <path fill="#158DC6" fill-opacity=".7" fill-rule="evenodd" d="M0 0h1440v800H0V0zm804.18 188.255c-6.12-.02-11.107 4.81-11.118 10.792-.02 4.75 3.098 8.787 7.43 10.257-.808 2-2.21 4.23-4.726 6.66-8.154 7.907-19.89 8.263-31.5 6.34-14.02-2.33-27.44-12.918-35.098-25.994-4.366-7.453-4.85-13.497-4.77-18.284.016-1.153.54-2.284 1.527-2.847 3.27-1.88 5.467-5.34 5.483-9.32.02-5.977-4.927-10.846-11.047-10.863l-.09-.005h-.31l-.094.004c-6.115.017-11.063 4.886-11.047 10.863.02 3.977 2.217 7.436 5.482 9.31.99.563 1.51 1.694 1.53 2.847.078 4.788-.41 10.83-4.77 18.285-7.66 13.075-21.08 23.664-35.102 25.992-11.603 1.923-23.34 1.567-31.494-6.34-2.517-2.43-3.925-4.66-4.73-6.66 4.334-1.47 7.45-5.51 7.43-10.257-.015-5.98-4.996-10.81-11.115-10.79-6.12.024-11.07 4.887-11.047 10.865.01 4.328 2.618 8.05 6.374 9.765 1.074.49 1.68 1.676 1.684 2.872l.184 55.916c.01 2.734 3.23 4.16 5.223 2.302l39.427-36.7c.87-.81 2-1.257 3.18-1.257h78.08c1.175 0 2.314.448 3.18 1.257l39.43 36.7c1.99 1.855 5.205.43 5.216-2.31l.19-55.915c0-1.197.602-2.383 1.682-2.875 3.752-1.716 6.354-5.437 6.364-9.765.027-5.98-4.92-10.84-11.04-10.863zm-82.395 139.21h.777l66.992.236-33.204-83.45-34.273-.122-34.284-.12L654 327.22l67.003.246h.782zm87.72-40.52l45.66 77.35-55.935-37.25L765 244l44.505 42.944zm-175.3-.324L588 363.65l56.188-36.845L679.006 244l-44.8 42.62zm85.895 50.62L654 337l33.097 83.2 32.432 81.498 32.99-81.275 33.68-82.948-66.1-.24zm7.9 164.82l126.035-127.32L797.388 337l-34.7 82.532L728 502.06zm-14.856.49L588 374.32 644.91 337l34.118 82.783 34.116 82.768z"/>
</svg>
