<svg xmlns="http://www.w3.org/2000/svg" width="198" height="40" viewBox="0 0 198 40">
  <g fill="none" fill-rule="evenodd">
    <path fill="#77848A" d="M39.37 17.287l-.016 3.957-1.315-.005.04-12.84h1.31l-.03 7.13 6.3-7.11h1.58l-5.5 6.19 5.36 6.64-1.64-.01-4.59-5.7m8.95-5.89l-.05 11.91-1.33-.01.05-13.21 3.69.01c.81 0 1.46.06 1.95.18.5.12.95.31 1.35.59.54.37.98.86 1.29 1.48.31.61.47 1.27.46 1.96 0 1.02-.32 1.9-.96 2.63-.63.73-1.43 1.13-2.38 1.19l3.3 5.17-1.61-.01-4.05-6.38 1.3.01c.87.01 1.57-.238 2.12-.73.54-.48.82-1.11.82-1.88.01-.466-.08-.89-.24-1.27-.17-.38-.41-.72-.735-1-.27-.238-.594-.41-.97-.51-.38-.1-1.06-.15-2.036-.15l-1.99-.01zm13.56 7.1l-.02 4.85-1.33-.01.02-4.87-4.33-8.32h1.54l3.48 6.86 3.57-6.84 1.5.01m.12 9.44l1.3.01c.02.82.26 1.47.71 1.96.45.49 1.05.73 1.8.74.8 0 1.43-.24 1.9-.71.47-.48.7-1.13.71-1.96 0-1.2-.96-2.1-2.88-2.72-.15-.05-.27-.08-.34-.11-1.01-.34-1.73-.76-2.18-1.27-.44-.51-.66-1.18-.66-2 0-1.05.34-1.91 1.03-2.59.68-.668 1.57-1 2.65-.998 1.03.004 1.85.31 2.45.926.6.61.94 1.47 1 2.58h-1.27c-.07-.72-.29-1.278-.66-1.67-.38-.39-.89-.59-1.52-.59-.68 0-1.24.21-1.67.635-.43.43-.65.97-.65 1.63 0 .35.06.64.18.9.13.25.34.48.62.685.29.21.84.44 1.66.7.47.145.83.266 1.08.357.89.34 1.53.77 1.92 1.28.39.52.58 1.2.58 2.04-.01 1.29-.378 2.32-1.11 3.1-.73.78-1.696 1.165-2.9 1.16-1.12 0-2.025-.375-2.72-1.12-.697-.74-1.053-1.72-1.065-2.93m12.632 3.82l-1.35-.005.04-11.904-2.75-.01V8.5l6.85.024-.01 1.296-2.75-.01m3.09 11.91l-1.42-.01 5.38-13.19 1.62.002 5.263 13.23-1.446-.007-1.63-4.15-6.113-.02-1.65 4.14zM91 16.41l-2.58-6.64-2.59 6.624 5.178.02zm10.76 5.37l-6.19-.02.05-13.207h1.36l-.04 11.927 4.833.014m21.24-9.21c-.62-.86-1.315-1.494-2.084-1.9-.77-.405-1.65-.61-2.63-.613-1.54 0-2.87.56-3.97 1.69-1.11 1.13-1.66 2.48-1.66 4.04-.01 1.67.53 3.07 1.62 4.22 1.08 1.15 2.4 1.72 3.96 1.73.96.01 1.83-.19 2.6-.58.77-.39 1.45-.98 2.02-1.77l1.61.01c-.64 1.17-1.5 2.07-2.56 2.71-1.07.64-2.27.95-3.6.95-2.04 0-3.74-.7-5.1-2.08-1.36-1.39-2.03-3.11-2.02-5.18 0-.96.19-1.88.56-2.74.37-.86.91-1.64 1.63-2.32.66-.66 1.4-1.15 2.23-1.49.82-.33 1.71-.5 2.67-.49 1.37 0 2.61.34 3.72 1.01 1.1.67 1.97 1.62 2.61 2.84h-1.64zm3.245 10.21l-1.437-.01 5.43-13.736 1.64.005 5.32 13.777-1.45-.007-1.64-4.324-6.17-.02-1.67 4.31zm7.38-5.53l-2.61-6.92-2.614 6.9 5.228.02zm4.694 5.57l.05-13.76 2.01.007 4.76 11.98 4.83-11.94 2.01.01-.05 13.76h-1.305l.046-12.15-4.927 12.14h-1.228l-4.84-12.16-.044 12.15m16-12.35l-.02 5.25 2.01.01c1.116.01 1.944-.2 2.477-.62.54-.42.81-1.07.81-1.95 0-.92-.26-1.59-.8-2.02-.53-.43-1.39-.64-2.58-.65h-1.89zm-1.36-1.36l2.945.01c.84.01 1.52.05 2.03.14.51.09.93.24 1.27.43.6.37 1.07.85 1.39 1.43.32.58.49 1.24.48 1.97-.01.69-.16 1.33-.45 1.92-.3.58-.71 1.05-1.24 1.4-.37.25-.81.42-1.32.53-.51.11-1.17.16-1.96.16l-1.82-.01-.03 5.78h-1.37l.05-13.75zM165.6 21.62l-1.363-.007.05-13.757 1.362.007m3.28 6.824c-.01 1.678.54 3.086 1.63 4.22 1.09 1.14 2.45 1.71 4.06 1.717 1.57.005 2.91-.562 4-1.707 1.09-1.14 1.64-2.546 1.64-4.224 0-1.56-.55-2.912-1.67-4.05-1.12-1.13-2.47-1.7-4.04-1.706-.64-.002-1.26.105-1.86.317-.6.217-1.15.535-1.65.954-.66.556-1.18 1.23-1.57 2.03-.38.797-.58 1.617-.58 2.455m-1.43-.024c.01-.96.2-1.88.57-2.74.38-.87.92-1.65 1.63-2.33.68-.66 1.43-1.16 2.25-1.49.81-.33 1.7-.5 2.65-.49.97 0 1.87.17 2.7.51.83.34 1.58.84 2.26 1.51.71.69 1.236 1.46 1.59 2.31.35.85.52 1.77.52 2.75-.01.97-.166 1.87-.47 2.69-.31.81-.77 1.55-1.38 2.21-.71.76-1.51 1.34-2.4 1.73-.89.39-1.86.58-2.9.57-2-.01-3.67-.71-5.02-2.11-1.346-1.39-2.02-3.12-2.01-5.16m25.274 5.4l-.113-12.11h1.353l-.05 13.75-1.64-.01L184.7 9.5l.11 12.13-1.34-.005.05-13.76h1.633M197.9 21.7l-1.36-.01.05-13.756 1.365.006M39.115 38v-8.28c.99-.072 1.947-.108 2.867-.108 1.17 0 1.99.314 2.46.942.47.628.7 1.73.7 3.306s-.232 2.678-.7 3.306c-.47.628-1.286.942-2.454.942-.904 0-1.86-.036-2.87-.108zm.78-7.668v7.056c.8.016 1.495.024 2.087.024.88 0 1.48-.26 1.82-.78.34-.52.51-1.444.51-2.772 0-1.328-.17-2.254-.51-2.778-.34-.524-.94-.786-1.81-.786-.143 0-.84.012-2.09.036zm10.463 5.136h-2.91c.05.768.225 1.296.53 1.584.303.288.8.432 1.487.432.6 0 1.27-.048 2.005-.144l.084.516c-.498.192-1.23.288-2.198.288-.98 0-1.67-.234-2.09-.702-.41-.468-.616-1.258-.616-2.37 0-1.12.2-1.906.6-2.358.4-.452 1.067-.678 2.003-.678.824 0 1.432.15 1.824.45.39.3.59.754.6 1.362.02 1.08-.43 1.62-1.33 1.62zm-2.907-.6h2.73c.51 0 .76-.336.75-1.008-.01-.408-.14-.704-.4-.888-.26-.184-.66-.276-1.22-.276-.68 0-1.15.158-1.43.474-.27.316-.41.882-.42 1.698zm8.62.672l-1.77-.336c-.45-.088-.78-.254-.99-.498-.21-.244-.31-.606-.31-1.086 0-.656.17-1.086.5-1.29.34-.204.91-.302 1.74-.294.88.016 1.68.076 2.38.18l-.07.552c-.96-.048-1.69-.072-2.21-.072-.64-.008-1.06.038-1.27.138-.21.1-.31.362-.31.786 0 .328.07.556.21.684.14.128.37.224.69.288l1.79.336c.46.096.8.262 1.02.498.21.236.32.59.32 1.062 0 .68-.18 1.124-.55 1.332-.36.208-.99.312-1.87.312-.79 0-1.53-.052-2.22-.156l.06-.564c.64.056 1.31.08 2.03.072.71-.008 1.19-.074 1.44-.198.25-.124.37-.39.37-.798 0-.312-.07-.532-.23-.66-.15-.128-.39-.224-.72-.288zm3.6-5.796h.35c.17 0 .25.084.25.252v.696c0 .168-.08.252-.25.252h-.35c-.16 0-.25-.084-.25-.252v-.696c0-.168.09-.252.25-.252zM60.23 38h-.756v-5.808h.75V38zm7.344-5.376l-.98.072c.22.272.333.668.333 1.188 0 .632-.183 1.092-.55 1.38-.37.288-.99.432-1.87.432-.546 0-.986-.052-1.32-.156-.12.152-.194.31-.22.474-.022.164.02.316.128.456s.286.23.534.27l2.23.372c.53.08.89.244 1.1.492.2.248.3.616.3 1.104 0 .656-.2 1.112-.6 1.368-.4.256-1.1.384-2.11.384-1.03 0-1.74-.126-2.14-.378-.4-.252-.6-.702-.6-1.35 0-.384.07-.69.21-.918.14-.228.4-.438.76-.63-.34-.216-.51-.516-.49-.9.01-.384.17-.688.47-.912-.48-.264-.72-.76-.72-1.488 0-.648.18-1.118.55-1.41.37-.292 1-.438 1.88-.438.53 0 .96.052 1.28.156h1.83l-.05.432zm-3.06 2.484c.62 0 1.06-.096 1.32-.288.25-.192.38-.504.38-.936 0-.448-.13-.768-.39-.96-.26-.192-.7-.288-1.32-.288-.634 0-1.08.096-1.34.288-.26.192-.39.512-.39.96 0 .432.13.744.396.936.264.192.71.288 1.332.288zm-1.18 2.244l-.05.036c-.27.184-.45.368-.55.552-.11.184-.16.432-.16.744 0 .44.14.738.42.894.28.156.8.234 1.57.234.75 0 1.265-.08 1.54-.24.277-.16.415-.456.415-.888 0-.336-.07-.57-.2-.702s-.41-.23-.83-.294l-2.17-.336zm6.21-5.16l.06.96c.966-.744 1.86-1.116 2.686-1.116 1.04 0 1.56.532 1.56 1.596V38h-.75v-4.164c0-.408-.08-.7-.235-.876-.155-.176-.413-.264-.773-.264-.35 0-.706.08-1.06.24-.358.16-.808.416-1.35.768V38h-.77v-5.808h.636zm6.49 4.524h.24c.19 0 .29.1.29.3v.768c-.02.64-.134 1.216-.35 1.728l-.36-.108c.064-.512.096-.98.096-1.404-.16 0-.23-.084-.216-.252v-.732c.01-.2.11-.3.3-.3zm10.404.588l.096.588c-.625.168-1.417.252-2.377.252-1.166 0-1.986-.32-2.46-.96-.47-.64-.706-1.748-.706-3.324 0-1.576.24-2.684.71-3.324.47-.64 1.29-.96 2.46-.96.87 0 1.61.076 2.21.228l-.1.588c-.61-.072-1.31-.108-2.11-.108-.88 0-1.49.26-1.83.78s-.51 1.452-.51 2.796c0 1.344.17 2.276.52 2.796s.96.78 1.84.78c.92 0 1.68-.044 2.28-.132zm3.95-5.268c.975 0 1.663.23 2.063.69.4.46.6 1.25.6 2.37s-.2 1.908-.6 2.364c-.4.456-1.09.684-2.06.684s-1.66-.23-2.07-.69c-.4-.46-.6-1.246-.6-2.358 0-1.12.2-1.91.61-2.37.41-.46 1.1-.69 2.07-.69zm0 .66c-.705 0-1.19.172-1.465.516-.273.344-.41.972-.41 1.884 0 .912.137 1.54.41 1.884.27.344.76.516 1.463.516s1.19-.172 1.464-.516c.272-.344.408-.972.408-1.884 0-.912-.134-1.54-.406-1.884-.27-.344-.76-.516-1.465-.516zM98.994 38l-.083-.9c-.79.696-1.56 1.044-2.32 1.044-.73 0-1.26-.244-1.59-.732-.32-.488-.48-1.264-.48-2.328 0-1.104.17-1.888.52-2.352.35-.464.9-.696 1.66-.696.74 0 1.47.188 2.2.564-.03-.264-.04-.644-.04-1.14V29.6h.75V38H99zm-.17-1.452v-3.42c-.823-.28-1.49-.42-1.99-.42-.57 0-.967.17-1.195.51-.23.34-.35.958-.35 1.854 0 .904.11 1.53.33 1.878.22.348.61.522 1.16.522.33 0 .63-.068.92-.204.29-.136.65-.376 1.1-.72zm6.19-1.08h-2.9c.047.768.223 1.296.527 1.584.31.288.8.432 1.49.432.6 0 1.27-.048 2.01-.144l.09.516c-.49.192-1.22.288-2.19.288s-1.67-.234-2.08-.702c-.41-.468-.61-1.258-.61-2.37 0-1.12.2-1.906.6-2.358.4-.452 1.07-.678 2.01-.678.82 0 1.43.15 1.82.45.39.3.59.754.6 1.362.02 1.08-.43 1.62-1.33 1.62zm-2.9-.6h2.723c.513 0 .76-.336.745-1.008-.008-.408-.14-.704-.396-.888-.258-.184-.666-.276-1.226-.276-.68 0-1.154.158-1.426.474-.272.316-.412.882-.42 1.698zm6.107 1.848h.24c.2 0 .29.1.29.3v.768c-.01.64-.13 1.216-.35 1.728l-.36-.108c.07-.512.1-.98.1-1.404-.16 0-.23-.084-.21-.252v-.732c.01-.2.11-.3.3-.3zm10.41.588l.1.588c-.62.168-1.41.252-2.37.252-1.17 0-1.99-.32-2.46-.96-.47-.64-.71-1.748-.71-3.324 0-1.576.24-2.684.71-3.324.47-.64 1.29-.96 2.46-.96.87 0 1.61.076 2.21.228l-.09.588c-.6-.072-1.31-.108-2.11-.108-.88 0-1.49.26-1.83.78-.34.52-.51 1.452-.51 2.796 0 1.344.17 2.276.52 2.796s.96.78 1.84.78c.91 0 1.67-.044 2.28-.132zm5.05-5.268l-.09.72h-.28c-.33 0-.67.07-1.02.21-.34.14-.78.37-1.32.69V38h-.77v-5.808h.59l.09.96c.96-.744 1.81-1.116 2.57-1.116h.25zm4.44 3.432h-2.9c.05.768.23 1.296.53 1.584.31.288.8.432 1.49.432.6 0 1.27-.048 2.01-.144l.09.516c-.5.192-1.23.288-2.2.288-.97 0-1.67-.234-2.08-.702-.41-.468-.62-1.258-.62-2.37 0-1.12.2-1.906.6-2.358.4-.452 1.07-.678 2.01-.678.83 0 1.43.15 1.83.45.39.3.59.754.6 1.362.02 1.08-.43 1.62-1.33 1.62zm-2.9-.6h2.73c.51 0 .76-.336.75-1.008 0-.408-.14-.704-.39-.888-.25-.184-.66-.276-1.22-.276-.68 0-1.15.158-1.42.474-.27.316-.41.882-.42 1.698zm5.89-2.004l-.07-.564c1.16-.176 2.1-.264 2.8-.264.63 0 1.09.138 1.4.414.31.276.47.734.47 1.374V38h-.6l-.1-1.02c-.28.288-.66.546-1.12.774-.46.228-.93.342-1.42.342-.51 0-.91-.136-1.21-.408-.3-.272-.44-.66-.44-1.164v-.672c0-.448.14-.796.4-1.044s.64-.372 1.13-.372h2.61v-.612c0-.384-.09-.668-.27-.852-.18-.184-.5-.276-.96-.276-.69 0-1.55.056-2.58.168zm.46 3.084v.504c0 .648.34.972 1.02.972.35.008.75-.078 1.18-.258.44-.18.83-.422 1.16-.726v-1.392h-2.48c-.58.024-.87.324-.87.9zm9.05 1.452l.1.576c-.4.08-.8.12-1.21.12-.96 0-1.44-.484-1.44-1.452v-3.852H137v-.54l1.056-.06v-1.764h.756v1.764h1.968v.6h-1.968v3.768c0 .56.284.84.852.84h.948zm1.73-7.656h.35c.17 0 .25.084.25.252v.696c0 .168-.08.252-.25.252h-.35c-.17 0-.25-.084-.25-.252v-.696c0-.168.08-.252.25-.252zM142.9 38h-.756v-5.808h.756V38zm7.032-5.808l-2.22 5.616c-.05.128-.144.192-.29.192h-.71c-.144 0-.24-.064-.29-.192l-2.22-5.616h.818l1.584 4.2c.05.12.115.3.2.54.08.24.145.408.185.504h.15l.39-1.056 1.58-4.188h.8zm1.536-2.448h.35c.16 0 .25.084.25.252v.696c0 .168-.09.252-.25.252h-.35c-.17 0-.25-.084-.25-.252v-.696c0-.168.08-.252.25-.252zm.55 8.256h-.76v-5.808h.756V38zm5-.6l.096.576c-.4.08-.804.12-1.212.12-.96 0-1.44-.484-1.44-1.452v-3.852h-1.05v-.54l1.056-.06v-1.764h.757v1.764h1.967v.6h-1.963v3.768c0 .56.28.84.85.84h.94zm6.444-5.208l-2.45 6.216c-.23.592-.523 1.07-.875 1.434-.35.364-.827.578-1.427.642l-.1-.492c.454-.152.81-.364 1.066-.636s.468-.616.628-1.032l.144-.324h-.19c-.15 0-.25-.068-.3-.204l-2.207-5.604h.82l1.72 4.536c.13.336.21.56.24.672h.17l.25-.684 1.7-4.524h.82zm1.07 4.524h.26c.2 0 .3.1.3.3v.684c0 .2-.1.3-.3.3h-.263c-.2 0-.29-.1-.29-.3v-.684c0-.2.09-.3.29-.3z"/>
    <path fill="#8D3774" d="M24.66 4.083c-.694-.002-1.26.545-1.26 1.224-.003.538.35.996.842 1.163-.092.227-.25.48-.536.755-.925.897-2.256.937-3.572.72-1.59-.265-3.112-1.466-3.98-2.95-.496-.844-.55-1.53-.54-2.072 0-.13.06-.26.172-.323.37-.212.62-.605.622-1.056.002-.678-.56-1.23-1.253-1.232H15.1c-.693.002-1.255.554-1.253 1.232.003.45.252.844.622 1.056.11.064.17.192.17.323.01.543-.05 1.228-.54 2.073-.87 1.483-2.39 2.684-3.98 2.948-1.32.218-2.65.178-3.58-.72-.29-.274-.45-.527-.54-.754.49-.167.84-.625.84-1.163 0-.68-.57-1.226-1.26-1.224-.7.002-1.26.554-1.26 1.232 0 .49.29.913.72 1.107.12.056.19.19.19.326l.02 6.34c0 .312.36.473.59.263l4.47-4.16c.1-.09.22-.14.36-.14h8.85c.13 0 .26.05.36.15l4.47 4.16c.22.21.59.05.59-.26L25 6.75c0-.137.07-.27.193-.327.426-.194.72-.616.722-1.107.003-.678-.558-1.23-1.252-1.232"/>
    <path fill="#158DC6" d="M15.17 19.786h.09l7.597.027-3.766-9.464-3.88-.02-3.88-.02-3.83 9.44 7.6.03m-9.85-4.63L0 23.88l6.372-4.178 3.95-9.397m3.92 29.34L.052 25.117l6.453-4.23 3.868 9.385m14.762-15.05l5.178 8.77-6.343-4.23-3.882-9.417M16.066 39.65L30.36 25.21l-6.43-4.277L20 30.3m-4.78-9.35l-2.91-.01-4.587-.017 3.754 9.435 3.678 9.242 3.74-9.217 3.82-9.406-7.496-.028z"/>
  </g>
</svg>
