<svg xmlns="http://www.w3.org/2000/svg" width="345" height="46" viewBox="0 0 345 46">
  <g fill="none" fill-rule="evenodd">
    <path fill="#FFF" d="M3.933 21.563l-.035 8.764-2.815-.012.104-28.425 2.815.015L3.948 17.7l13.5-15.75 3.392.01L9.06 15.67l11.477 14.714-3.507-.01-9.816-12.627M26.367 4.722l-.092 26.37-2.847-.014.105-29.243 7.898.03c1.74.007 3.14.14 4.19.402 1.06.268 2.02.702 2.88 1.306 1.17.826 2.1 1.92 2.77 3.292.67 1.362 1.01 2.815 1 4.34 0 2.258-.69 4.21-2.05 5.837-1.35 1.626-3.05 2.51-5.08 2.65l7.07 11.454-3.43-.01-8.67-14.13 2.79.01c1.86.01 3.37-.527 4.54-1.613 1.17-1.078 1.76-2.466 1.76-4.167.01-1.032-.17-1.974-.52-2.812-.35-.852-.88-1.59-1.57-2.212-.58-.528-1.27-.907-2.08-1.128-.81-.223-2.27-.34-4.35-.347l-4.26-.015zM55.41 20.447l-.042 10.743-2.852-.01.04-10.782-9.323-18.49 3.31.016 7.46 15.202 7.64-15.153 3.218.01m.26 20.887l2.79.012c.05 1.814.56 3.25 1.53 4.327.97 1.08 2.26 1.61 3.85 1.62 1.72 0 3.07-.53 4.08-1.59 1-1.06 1.51-2.51 1.52-4.33.02-2.65-2.04-4.66-6.16-6.03-.32-.11-.56-.18-.73-.24-2.15-.75-3.69-1.69-4.65-2.83-.93-1.13-1.41-2.61-1.4-4.43.01-2.33.74-4.24 2.21-5.72 1.47-1.48 3.36-2.21 5.69-2.21 2.21 0 3.95.68 5.24 2.05 1.3 1.35 2.01 3.26 2.15 5.71l-2.72-.01c-.14-1.6-.61-2.83-1.42-3.7-.8-.87-1.89-1.31-3.25-1.31-1.45-.01-2.64.46-3.57 1.4-.92.94-1.39 2.14-1.39 3.61 0 .76.13 1.42.41 1.98.28.55.72 1.06 1.33 1.52.62.46 1.8.97 3.55 1.54 1.01.32 1.77.59 2.3.79 1.91.74 3.29 1.69 4.12 2.84.84 1.14 1.25 2.64 1.25 4.51-.01 2.84-.8 5.12-2.36 6.85-1.56 1.72-3.62 2.58-6.2 2.57-2.4-.01-4.34-.84-5.83-2.48-1.49-1.65-2.25-3.81-2.28-6.49m27.05 8.45l-2.89-.01.09-26.37-5.88-.02.01-2.87 14.65.05-.01 2.87-5.88-.03m6.6 26.4l-3.04-.02 11.52-29.2 3.47.01 11.26 29.29-3.09-.01-3.482-9.19-13.08-.04-3.55 9.164zm15.64-11.76L109 4.88l-5.548 14.663 11.077.034zm23.03 11.89l-13.25-.05.11-29.24 2.907.01-.09 26.41 10.345.04m46-19.523c-1.32-1.84-2.79-3.19-4.43-4.054-1.63-.864-3.49-1.3-5.59-1.31-3.275-.01-6.092 1.19-8.43 3.6-2.34 2.416-3.51 5.287-3.52 8.62-.02 3.55 1.136 6.55 3.447 8.99 2.3 2.44 5.116 3.67 8.43 3.68 2.04.01 3.885-.41 5.54-1.248 1.645-.84 3.09-2.1 4.31-3.78l3.44.02c-1.363 2.5-3.18 4.42-5.45 5.774-2.28 1.36-4.826 2.03-7.654 2.02-4.332-.01-7.95-1.49-10.84-4.45-2.894-2.95-4.322-6.63-4.306-11.04.01-2.06.4-4 1.19-5.84.79-1.84 1.95-3.5 3.47-4.97 1.41-1.4 2.99-2.45 4.75-3.16 1.76-.71 3.65-1.06 5.69-1.05 2.93.01 5.57.73 7.91 2.17s4.19 3.45 5.55 6.07l-3.48-.01zm6.9 21.776l-3.06-.013L199 1.544l3.49.01 11.31 29.4-3.1-.01-3.5-9.22-13.13-.05-3.56 9.21zm15.69-11.8L200.63 4.33l-5.56 14.72 11.11.037zm9.986 11.885l.107-29.35 4.276.01 10.13 25.56 10.23-25.45 4.278.013-.11 29.35-2.774-.004.096-25.926-10.48 25.888-2.61-.014-10.29-25.95-.1 25.914m34.02-26.344l-.04 11.193 4.27.01c2.38.01 4.14-.43 5.27-1.33 1.15-.9 1.72-2.29 1.72-4.17 0-1.96-.56-3.41-1.7-4.31-1.14-.92-2.96-1.38-5.49-1.38l-4.04-.02zm-2.89-2.89l6.26.02c1.8.006 3.23.104 4.31.296 1.08.192 1.98.497 2.7.917 1.29.78 2.28 1.8 2.97 3.04.69 1.24 1.04 2.65 1.02 4.2-.01 1.47-.32 2.84-.96 4.1-.64 1.25-1.51 2.24-2.64 2.98-.79.52-1.72.9-2.81 1.13-1.09.23-2.48.34-4.17.34l-3.87-.02-.05 12.33-2.9-.01.1-29.35zm24.04 29.434l-2.9-.015.1-29.35 2.9.014m6.98 14.55c-.01 3.58 1.14 6.58 3.47 9 2.32 2.43 5.21 3.64 8.65 3.66 3.35.01 6.18-1.2 8.5-3.64 2.32-2.44 3.49-5.44 3.5-9.02.01-3.33-1.17-6.21-3.54-8.64-2.38-2.42-5.24-3.63-8.58-3.64-1.37-.01-2.68.22-3.94.67-1.27.46-2.44 1.14-3.51 2.03-1.41 1.18-2.52 2.62-3.33 4.32-.82 1.7-1.22 3.45-1.23 5.23m-3.04-.06c0-2.05.41-4 1.2-5.85.8-1.85 1.95-3.51 3.46-4.97 1.45-1.41 3.04-2.47 4.79-3.17 1.74-.71 3.62-1.06 5.65-1.05 2.07.01 3.98.37 5.74 1.1 1.77.72 3.37 1.8 4.82 3.23 1.5 1.47 2.62 3.11 3.37 4.93.75 1.82 1.12 3.77 1.12 5.87-.01 2.08-.35 4-.99 5.74-.66 1.73-1.64 3.31-2.94 4.73-1.51 1.64-3.21 2.87-5.1 3.69-1.9.83-3.96 1.24-6.17 1.23-4.247-.02-7.8-1.51-10.67-4.49-2.866-2.978-4.29-6.65-4.28-11.017m53.76 11.56L331.67 2l2.873.01-.1 29.343-3.48-.01L314.84 5.41l.23 25.883-2.86-.013.103-29.35 3.48.017m27.044 29.45l-2.896-.013.11-29.35 2.9.01"/>
    <path stroke="#FFF" stroke-width="2" d="M1.5 45h342.422" stroke-linecap="square"/>
  </g>
</svg>
