<svg xmlns="http://www.w3.org/2000/svg" width="40" height="60" viewBox="0 0 40 60" xmlns:xlink="http://www.w3.org/1999/xlink">
  <defs>
    <rect id="a" width="40" height="60" rx="10"/>
    <mask id="b" width="40" height="60" x="0" y="0" fill="#fff">
      <use xlink:href="#a"/>
    </mask>
    <path id="c" d="M21.16 39.368V0H0v39.368z"/>
  </defs>
  <g fill="none" fill-rule="evenodd">
    <use stroke="#FFF" stroke-width="4" mask="url(#b)" xlink:href="#a"/>
    <g transform="translate(9.333 10)">
      <mask id="d" fill="#fff">
        <use xlink:href="#c"/>
      </mask>
      <path fill="#FFF" d="M11.583 38.953c-.554.554-1.453.554-2.007 0L.31 29.688c-.198-.2-.31-.468-.31-.75 0-.94 1.14-1.413 1.806-.747l7.022 7.025c.256.256.694.074.694-.288V1.057C9.522.474 9.996 0 10.58 0c.584 0 1.058.473 1.058 1.057v33.87c0 .36.437.543.694.287l7.022-7.022c.666-.665 1.806-.193 1.806.75 0 .28-.112.55-.31.748l-9.267 9.265z" mask="url(#d)"/>
    </g>
  </g>
</svg>
